# xmcd CD database file
#
# Track frame offsets:
#	183
#	9583
#	20778
#	34418
#	46660
#	57395
#	72700
#	81803
#	91540
#	103210
#	113153
#	124165
#	134005
#	145858
#	157003
#	166088
#
# Disc length: 2377 seconds
#
# Revision: 1
# Processed by: cddbd v1.5.1PL0 Copyright (c) Steve Scherf et al.
# Submitted via: CDex 1.51
#
DISCID=df094710
DTITLE=Jim Reeves - After awhile
DYEAR=1988
DGENRE=Country
TTITLE0=My Mary
TTITLE1=Gypsy heart
TTITLE2=What were you doing last night
TTITLE3=Let me love you just a little
TTITLE4=Then I'll stop loving you
TTITLE5=Blue side of lonesome
TTITLE6=Overnight
TTITLE7=Somewhere along the line
TTITLE8=I missed me
TTITLE9=After awhile
TTITLE10=Satan can't hold me
TTITLE11=Snowflake
TTITLE12=My final affair
TTITLE13=Just walking in the rain
TTITLE14=You're free to go
TTITLE15=A letter to my heart
EXTD=YEAR: 1988
EXTT0=
EXTT1=
EXTT2=
EXTT3=
EXTT4=
EXTT5=
EXTT6=
EXTT7=
EXTT8=
EXTT9=
EXTT10=
EXTT11=
EXTT12=
EXTT13=
EXTT14=
EXTT15=
PLAYORDER=
